HIERARCHY
ROOT Hips
{
	OFFSET 0.00000 0.00000 0.00000
	CHANNELS 6 Xposition Yposition Zposition Zrotation Yrotation Xrotation 
	JOINT LHipJoint
	{
		OFFSET 0 0 0
		CHANNELS 3 Zrotation Yrotation Xrotation
		JOINT LeftHip
		{
			OFFSET 1.48416 -1.82041 0.59464
			CHANNELS 3 Zrotation Yrotation Xrotation
			JOINT LeftKnee
			{
				OFFSET 2.43280 -6.68407 0.00000
				CHANNELS 3 Zrotation Yrotation Xrotation
				JOINT LeftAnkle
				{
					OFFSET 2.68325 -7.37216 0.00000
					CHANNELS 3 Zrotation Yrotation Xrotation
					JOINT LeftToe
					{
						OFFSET 0.15365 -0.42214 1.91990
						CHANNELS 3 Zrotation Yrotation Xrotation
						End Site
						{
							OFFSET 0.00000 -0.00000 0.99320
						}
					}
				}
			}
		}
	}
	JOINT RHipJoint
	{
		OFFSET 0 0 0
		CHANNELS 3 Zrotation Yrotation Xrotation
		JOINT RightHip
		{
			OFFSET -1.70852 -1.82040 0.59464
			CHANNELS 3 Zrotation Yrotation Xrotation
			JOINT RightKnee
			{
				OFFSET -2.50396 -6.87957 0.00000
				CHANNELS 3 Zrotation Yrotation Xrotation
				JOINT RightAnkle
				{
					OFFSET -2.67204 -7.34139 0.00000
					CHANNELS 3 Zrotation Yrotation Xrotation
					JOINT RightToe
					{
						OFFSET -0.17346 -0.47657 2.02009
						CHANNELS 3 Zrotation Yrotation Xrotation
						End Site
						{
							OFFSET -0.00000 -0.00000 1.04609
						}
					}
				}
			}
		}
	}
	JOINT lowerback
	{
		OFFSET 0 0 0
		CHANNELS 3 Zrotation Yrotation Xrotation
		JOINT Chest
		{
			OFFSET -0.01022 1.99636 -0.30653
			CHANNELS 3 Zrotation Yrotation Xrotation
			JOINT Chest2
			{
				OFFSET -0.01683 2.01212 0.04808
				CHANNELS 3 Zrotation Yrotation Xrotation
				JOINT lowerneck
				{
					OFFSET 0 0 0
					CHANNELS 3 Zrotation Yrotation Xrotation
					JOINT Neck
					{
						OFFSET -0.03080 1.91178 0.03911
						CHANNELS 3 Zrotation Yrotation Xrotation
						JOINT Head
						{
							OFFSET 0.10605 1.89839 -0.23433
							CHANNELS 3 Zrotation Yrotation Xrotation
							End Site
							{
								OFFSET 0.03474 1.92469 -0.08609
							}
						}
					}
				}
				JOINT LeftCollar
				{
					OFFSET 0 0 0
					CHANNELS 3 Zrotation Yrotation Xrotation
					JOINT LeftShoulder
					{
						OFFSET 3.78977 1.27972 -0.24661
CHANNELS 3 Zrotation Xrotation Yrotation
						JOINT LeftElbow
						{
OFFSET 0 -5.641470 -0.000000
CHANNELS 3 Zrotation Xrotation Yrotation
							JOINT LeftWrist
							{
OFFSET 0 -2.864440 -0.000000
CHANNELS 3 Zrotation Xrotation Yrotation
								JOINT lhand
								{
									OFFSET 0 0 0
CHANNELS 3 Zrotation Xrotation Yrotation
									JOINT LFingers
									{
OFFSET 0 -0.722120 -0.000000
CHANNELS 3 Zrotation Xrotation Yrotation
										End Site
										{
OFFSET 0 -0.582190 -0.000000
										}
									}
								}
								JOINT LThumb
								{
OFFSET 0 0.000000 0.000000
CHANNELS 3 Zrotation Xrotation Yrotation
									End Site
									{
OFFSET 0 -0.591080 0.591080
									}
								}
							}
						}
					}
				}
				JOINT RightCollar
				{
					OFFSET 0 0 0
					CHANNELS 3 Zrotation Yrotation Xrotation
					JOINT RightShoulder
					{
						OFFSET -3.41176 1.18605 -0.57927
CHANNELS 3 Zrotation Xrotation Yrotation
						JOINT RightElbow
						{
OFFSET 0 -5.447290 -0.000000
CHANNELS 3 Zrotation Xrotation Yrotation
							JOINT RightWrist
							{
OFFSET 0 -3.088210 -0.000000
CHANNELS 3 Zrotation Xrotation Yrotation
								JOINT rhand
								{
									OFFSET 0 0 0
CHANNELS 3 Zrotation Xrotation Yrotation
									JOINT RFingers
									{
OFFSET 0 -0.821050 -0.000000
CHANNELS 3 Zrotation Xrotation Yrotation
										End Site
										{
OFFSET 0 -0.661950 -0.000000
										}
									}
								}
								JOINT RThumb
								{
OFFSET 0 0.000000 0.000000
CHANNELS 3 Zrotation Xrotation Yrotation
									End Site
									{
OFFSET 0 -0.672060 0.672060
									}
								}
							}
						}
					}
				}
			}
		}
	}
}
MOTION
Frames: 7
Frame Time: 0.008333333333333333
2.992200 17.699000 -0.078300 -7.355500 87.404100 -8.823700 0.000000 0.000000 0.000000 -16.542600 1.823300 -0.128600 0.324300 3.660500 10.123300 0.292100 -3.878600 -9.612700 0.001000 -0.209200 -0.574700 0.000000 0.000000 0.000000 18.016500 1.235700 -0.019400 -0.685800 -5.294600 14.750700 -0.900500 -0.429400 -18.095400 -0.264800 3.310600 -9.144600 1.507800 0.909200 5.492700 0.494300 1.328200 1.092800 -0.431700 0.663700 -1.931800 1.489400 3.237000 -3.430800 2.646000 4.120600 5.690400 0.712000 2.173600 2.354100 0.000000 0.000000 0.000000 12.556300 -18.535600 -64.313400 44.712100 -50.626600 22.015900 -2.998700 -43.339900 -13.804200 0.000000 0.000000 0.000000 -7.125000 0.000000 0.000000 -26.917500 42.069000 -2.117400 0.000000 0.000000 0.000000 -13.856000 -20.149700 59.711400 -30.229700 -41.089400 -11.560300 -7.788900 6.479100 -14.507300 0.000000 0.000000 0.000000 7.125000 0.000000 -0.000000 13.365000 15.600100 9.545400
3.018662 17.698117 -0.120718 -15.799415 86.994540 -16.912613 0.000000 0.000000 0.000000 -16.159643 1.706493 -0.912496 0.387838 3.999097 11.074156 0.322623 -4.127805 -10.106834 0.004898 -0.453298 -1.245421 0.000000 0.000000 0.000000 18.391167 1.306347 0.019425 -0.628963 -5.074558 14.121199 -0.861208 -0.611255 -17.767842 -0.291703 3.473422 -9.599686 1.646195 0.935740 5.516559 0.252399 1.365687 1.051411 -0.761220 0.679850 -1.977778 0.327794 1.878934 -3.932301 2.290332 2.419535 2.616335 0.714354 1.260055 1.445532 0.000000 0.000000 0.000000 5.491502 -14.938591 -58.653582 10.991508 -18.274784 1.773636 10.691156 -35.581907 -8.757519 0.000000 0.000000 0.000000 -7.125000 0.000000 0.000000 -13.924131 38.530355 -2.271067 0.000000 0.000000 0.000000 -6.817430 -14.594172 32.059392 -8.568651 -14.470237 -1.089876 -6.848866 27.997803 -13.001016 0.000000 0.000000 0.000000 7.125000 0.000000 0.000000 14.072705 17.121106 9.602131
3.114801 17.700047 -0.128117 -11.043063 86.711141 -11.525826 0.000000 0.000000 0.000000 -16.409798 2.012340 -1.175753 0.369817 3.905966 10.812378 0.322997 -4.449911 -10.128915 0.012543 -0.723401 -1.988122 0.000000 0.000000 0.000000 18.162709 1.827537 -0.334541 -0.646590 -5.144035 14.319797 -0.902857 -0.448651 -18.125899 -0.301937 3.532761 -9.765816 0.959925 0.580956 6.087724 -0.159043 0.850732 1.065799 -0.770316 0.424799 -2.298172 -0.708158 0.982406 -4.032076 2.531851 1.402988 -2.380419 0.902967 0.731331 -0.086346 0.000000 0.000000 0.000000 5.063598 -2.588862 -30.955384 5.633865 -9.650135 0.476037 12.521217 -22.815265 -9.557461 0.000000 0.000000 0.000000 -7.125000 0.000000 0.000000 -12.550554 39.461623 -1.744969 0.000000 0.000000 0.000000 -6.919413 1.308935 23.784434 -10.322297 -17.241937 -1.569213 -6.262267 20.507960 -13.602232 0.000000 0.000000 0.000000 7.125000 0.000000 0.000000 14.435118 16.562574 10.048141
3.218930 17.695715 -0.135460 -12.184634 86.445417 -12.142999 0.000000 0.000000 0.000000 -16.410026 1.409606 -1.429052 0.415326 4.136765 11.461739 0.404776 -4.017406 -11.314303 0.009250 -0.620793 -1.705853 0.000000 0.000000 0.000000 18.184145 1.824451 -0.474581 -0.628659 -5.073632 14.118657 -0.885375 -0.051071 -17.807593 -0.305514 3.553806 -9.824761 0.462440 0.275120 6.440372 -0.303751 0.404249 0.668420 -0.608610 0.200310 -2.916039 -1.748822 0.166521 -1.752389 2.928870 0.547654 -8.363457 1.218992 0.311315 -2.350821 0.000000 0.000000 0.000000 5.944472 11.219743 -26.960857 8.764866 -14.784878 1.139363 10.949219 -32.169928 -7.961032 0.000000 0.000000 0.000000 -7.125000 0.000000 0.000000 -13.538388 37.762381 -2.466604 0.000000 0.000000 0.000000 -5.674427 14.819848 16.441747 -13.221649 -21.611076 -2.534358 -7.457600 13.711229 -13.076873 0.000000 0.000000 0.000000 7.125000 0.000000 0.000000 13.655447 17.018361 9.331522
3.260034 17.687773 -0.167727 -19.862126 85.987978 -19.999883 0.000000 0.000000 0.000000 -15.861919 1.110011 -1.910291 0.545653 4.732272 13.146568 0.487780 -4.263162 -12.427751 0.005220 -0.468102 -1.286271 0.000000 0.000000 0.000000 18.778013 1.922827 0.404668 -0.547121 -4.738790 13.165175 -0.848614 -0.423648 -17.567942 -0.336739 3.729290 -10.316257 0.338511 0.174077 6.896468 -0.530361 0.247121 0.066604 -0.763292 0.115597 -3.795446 -2.626950 -0.834316 0.589226 4.160298 -0.617151 -11.607336 1.866948 -0.281139 -3.872325 0.000000 0.000000 0.000000 5.642846 15.410566 -14.911905 8.330271 -14.086783 1.031015 11.578735 -30.120064 -9.194065 0.000000 0.000000 0.000000 -7.125000 0.000000 0.000000 -13.271723 39.027659 -1.994099 0.000000 0.000000 0.000000 -3.821336 17.326033 -2.112466 -10.656210 -17.759367 -1.669624 -8.259676 20.790680 -13.110727 0.000000 0.000000 0.000000 7.125000 0.000000 0.000000 13.108756 16.945012 8.958291
3.293700 17.669000 -0.248543 -16.659817 86.063744 -17.227565 0.000000 0.000000 0.000000 -16.395022 1.616169 -1.715540 0.579794 4.875709 13.554317 0.497375 -4.716162 -12.549615 0.011750 -0.700792 -1.925921 0.000000 0.000000 0.000000 18.108372 1.402912 0.575430 -0.587573 -4.907776 13.645763 -0.876216 0.469447 -17.540828 -0.299410 3.518525 -9.725908 -1.027761 -0.065172 6.699296 -1.237212 -0.218324 -0.742289 -0.681268 -0.094470 -4.529562 -3.735162 -2.190701 0.219843 6.653174 -2.391236 -9.188185 2.904772 -1.213973 -2.870672 0.000000 0.000000 0.000000 6.532895 10.998580 3.579846 5.176486 -8.881951 0.402352 11.845790 -20.232008 -6.622853 0.000000 0.000000 0.000000 -7.125000 0.000000 0.000000 -12.532436 36.490898 -2.674092 0.000000 0.000000 0.000000 -4.924919 13.582056 -14.849508 -8.417096 -14.226720 -1.052278 -9.281872 30.754038 -13.814895 0.000000 0.000000 0.000000 7.125000 0.000000 0.000000 12.385737 16.195365 8.646204
3.321171 17.651790 -0.392262 -17.545968 85.501849 -18.720453 0.000000 0.000000 0.000000 -16.589355 2.516057 -1.809205 0.672920 5.245429 14.609887 0.533511 -5.566178 -13.025354 0.003680 -0.392838 -1.079446 0.000000 0.000000 0.000000 17.893933 1.767241 1.702917 -0.544521 -4.727783 13.133688 -0.845709 0.115860 -17.346066 -0.376399 3.940226 -10.908478 -2.027895 -0.594410 6.444429 -2.066251 -1.049877 -1.625026 -0.894041 -0.479837 -5.310070 -7.178582 -9.002781 2.889906 12.008880 -11.518187 -8.783452 4.948194 -5.904324 -1.911147 0.000000 0.000000 0.000000 8.416956 6.342063 7.361914 5.285799 -9.065756 0.419386 14.451284 -18.888717 -4.705065 0.000000 0.000000 0.000000 -7.125000 0.000000 0.000000 -10.079985 34.696485 -2.582984 0.000000 0.000000 0.000000 -6.714931 7.461858 -17.506499 -9.275290 -15.597796 -1.273296 -13.605484 22.246151 -12.409432 0.000000 0.000000 0.000000 7.125000 0.000000 0.000000 9.461176 17.328986 6.300674
